<svg preserveAspectRatio="none" width="100%" height="100%" overflow="visible" style="display: block;" viewBox="0 0 23 23" fill="none" xmlns="http://www.w3.org/2000/svg">
<path id="Vector" d="M16.309 21.22V18.0125H5.7625C5.3025 18.0125 4.90358 17.8436 4.56575 17.5057C4.22792 17.1679 4.059 16.769 4.059 16.309V5.7625H0.8515C0.611167 5.7625 0.409167 5.68017 0.2455 5.5155C0.0818333 5.351 0 5.14792 0 4.90625C0 4.66475 0.0818333 4.46317 0.2455 4.3015C0.409167 4.13983 0.611167 4.059 0.8515 4.059H4.059V0.8515C4.059 0.611167 4.14133 0.409167 4.306 0.2455C4.4705 0.0818335 4.67358 0 4.91525 0C5.15675 0 5.35833 0.0818335 5.52 0.2455C5.68167 0.409167 5.7625 0.611167 5.7625 0.8515V16.309H21.22C21.4603 16.309 21.6623 16.3913 21.826 16.556C21.9897 16.7205 22.0715 16.9236 22.0715 17.1652C22.0715 17.4067 21.9897 17.6083 21.826 17.77C21.6623 17.9317 21.4603 18.0125 21.22 18.0125H18.0125V21.22C18.0125 21.4603 17.9302 21.6623 17.7655 21.826C17.601 21.9897 17.3979 22.0715 17.1563 22.0715C16.9148 22.0715 16.7132 21.9897 16.5515 21.826C16.3898 21.6623 16.309 21.4603 16.309 21.22ZM16.309 14.809V5.7625H7.2625V4.059H16.309C16.769 4.059 17.1679 4.22792 17.5057 4.56575C17.8436 4.90358 18.0125 5.3025 18.0125 5.7625V14.809H16.309Z" fill="var(--fill-0, black)"/>
</svg>
