<svg preserveAspectRatio="none" width="100%" height="100%" overflow="visible" style="display: block;" viewBox="0 0 19 21" fill="none" xmlns="http://www.w3.org/2000/svg">
<path id="Vector" d="M5.353 17.1285H2.9685C2.651 17.1285 2.36375 17.0525 2.10675 16.9005C1.84975 16.7487 1.64392 16.5388 1.48925 16.2708L0.224 14.0035C0.0746666 13.7442 0 13.4691 0 13.1783C0 12.8874 0.0746666 12.6113 0.224 12.35L1.47025 10.1018L0.224 7.8535C0.0746666 7.59417 0 7.31908 0 7.02825C0 6.73742 0.0746666 6.46133 0.224 6.2L1.48925 3.93275C1.64392 3.66475 1.84975 3.45475 2.10675 3.30275C2.36375 3.15092 2.651 3.075 2.9685 3.075H5.353L6.62025 0.85175C6.76975 0.588084 6.97258 0.38025 7.22875 0.22825C7.48475 0.0760835 7.773 0 8.0935 0H10.524C10.8445 0 11.1328 0.0760835 11.3888 0.22825C11.6449 0.38025 11.8498 0.588084 12.0033 0.85175L13.2652 3.075H15.649C15.9665 3.075 16.2538 3.15092 16.5108 3.30275C16.7678 3.45475 16.9736 3.66475 17.1283 3.93275L18.3995 6.2C18.5448 6.45933 18.6175 6.73442 18.6175 7.02525C18.6175 7.31608 18.5428 7.59217 18.3935 7.8535L17.1533 10.1018L18.3935 12.35C18.5428 12.6093 18.6175 12.8844 18.6175 13.1753C18.6175 13.4661 18.5448 13.7422 18.3995 14.0035L17.1283 16.2708C16.9736 16.5388 16.7678 16.7487 16.5108 16.9005C16.2538 17.0525 15.9665 17.1285 15.649 17.1285H13.2652L12.0033 19.3518C11.8498 19.6154 11.6449 19.8233 11.3888 19.9753C11.1328 20.1274 10.8445 20.2035 10.524 20.2035H8.0935C7.773 20.2035 7.48475 20.1274 7.22875 19.9753C6.97258 19.8233 6.76975 19.6154 6.62025 19.3518L5.353 17.1285ZM13.302 9.275H15.674L16.9703 7.02675L15.6718 4.7785H13.2995L12.0033 7.02675L13.302 9.275ZM8.1205 12.3H10.499L11.7953 10.1018L10.503 7.9035H8.1245L6.82825 10.1018L8.1205 12.3ZM8.12725 6.2H10.499L11.7892 3.95175L10.4975 1.7035H8.1185L6.82825 3.95175L8.12725 6.2ZM6.64525 7.02675L5.34625 4.7785H2.9745L1.67825 7.02675L2.97725 9.275H5.349L6.64525 7.02675ZM6.64525 13.1768L5.32125 10.9285H2.9495L1.65325 13.1768L2.97725 15.425H5.349L6.64525 13.1768ZM8.1185 14.0035L6.82825 16.2518L8.12 18.5H10.499L11.7892 16.2518L10.4903 14.0035H8.1185ZM13.3022 15.425H15.674L16.9703 13.1768L15.6712 10.9285H13.2995L12.0783 13.1768L13.3022 15.425Z" fill="var(--fill-0, black)"/>
</svg>
