<svg preserveAspectRatio="none" width="100%" height="100%" overflow="visible" style="display: block;" viewBox="0 0 19 19" fill="none" xmlns="http://www.w3.org/2000/svg">
<path id="Vector" d="M3.95475 15.1017H14.3442C14.5577 15.1017 14.7363 15.0294 14.88 14.8847C15.0238 14.7402 15.0957 14.5611 15.0957 14.3473C15.0957 14.1336 15.0238 13.9559 14.88 13.8142C14.7363 13.6726 14.5577 13.6017 14.3442 13.6017H3.95475C3.74125 13.6017 3.56267 13.674 3.419 13.8185C3.27517 13.9632 3.20325 14.1423 3.20325 14.356C3.20325 14.5698 3.27517 14.7476 3.419 14.8892C3.56267 15.0309 3.74125 15.1017 3.95475 15.1017ZM1.70325 18.305C1.24325 18.305 0.844417 18.1361 0.50675 17.7983C0.168917 17.4606 0 17.0617 0 16.6017V1.70925C0 1.24758 0.168917 0.847332 0.50675 0.508499C0.844417 0.169499 1.24325 0 1.70325 0H16.5957C17.0574 0 17.4577 0.169499 17.7965 0.508499C18.1355 0.847332 18.305 1.24758 18.305 1.70925V16.6017C18.305 17.0617 18.1355 17.4606 17.7965 17.7983C17.4577 18.1361 17.0574 18.305 16.5957 18.305H1.70325ZM1.70325 16.6017H16.5957V1.70925H1.70325V16.6017Z" fill="var(--fill-0, black)"/>
</svg>
